<?xml version="1.0" encoding="utf-8"?>
<!-- Svg Vector Icons : http://www.onlinewebfonts.com/icon -->
<!DOCTYPE svg PUBLIC "-//W3C//DTD SVG 1.1//EN" "http://www.w3.org/Graphics/SVG/1.1/DTD/svg11.dtd">
<svg version="1.1" xmlns="http://www.w3.org/2000/svg" xmlns:xlink="http://www.w3.org/1999/xlink" x="0px" y="0px" viewBox="0 0 1000 1000" enable-background="new 0 0 1000 1000" xml:space="preserve">
<metadata> Svg Vector Icons : http://www.onlinewebfonts.com/icon </metadata>
<g><g transform="translate(0.000000,512.000000) scale(0.100000,-0.100000)"><path d="M1245.6,4995.3c-27.3-15.6-60.5-52.7-74.1-82c-15.6-41-21.5-1266.3-17.6-4829.1l5.8-4774.5l44.9-44.9l44.9-44.9h3754h3754l44.9,44.9l44.9,44.9v3929.6v3931.6l-922.9,920.9l-920.9,922.9l-2854.5,3.9C1711.9,5022.6,1288.5,5018.7,1245.6,4995.3z M6769.3,3848v-827.3l50.7-46.8l50.7-46.8l817.5-5.8l817.5-5.9v-3676v-3677.9H5003.5H1501.2V117.4v4555.9h2634.1h2634.1V3848z M7686.3,3844.1l575.6-575.6h-581.4H7101v575.6c0,316.1,1.9,575.6,5.8,575.6C7108.8,4419.7,7370.3,4160.2,7686.3,3844.1z"/><path d="M3146-91.4c-302.4-302.4-560-573.6-573.6-604.9c-11.7-29.3-17.6-74.1-11.7-97.6c11.7-46.8,1071.2-1127.8,1141.4-1164.8c113.2-60.5,238,17.6,238,148.3c0,70.2-21.5,95.6-487.8,561.9l-487.8,487.8l487.8,487.8c464.4,466.3,487.8,493.6,487.8,561.9c0,101.5-68.3,169.8-169.8,169.8C3702.1,458.8,3672.8,433.5,3146-91.4z"/><path d="M5436.7,437.4c-48.8-27.3-1125.8-2189.2-1125.8-2257.5c0-105.4,124.9-185.4,232.2-148.3c42.9,15.6,132.7,181.5,601,1110.2C5520.6-109,5694.2,254,5694.2,298.8C5696.2,421.8,5547.9,501.8,5436.7,437.4z"/><path d="M6115.7,410.1c-35.1-33.2-48.8-68.3-48.8-121c0-68.3,23.4-95.6,487.8-561.9l487.8-487.8l-487.8-487.8c-466.3-466.3-487.8-491.7-487.8-561.9c0-136.6,124.9-208.8,249.7-142.5C6408.3-1904,7428.8-864,7442.5-803.6c7.8,29.3,3.9,78-7.8,107.3C7421-665,7163.4-393.8,6861-91.4c-526.8,524.9-556.1,550.2-624.4,550.2C6184,458.8,6148.8,445.2,6115.7,410.1z"/></g></g>
</svg>